<?xml version="1.0" encoding="utf-8"?>
<!-- Generator: Adobe Illustrator 16.0.0, SVG Export Plug-In . SVG Version: 6.00 Build 0)  -->
<!DOCTYPE svg PUBLIC "-//W3C//DTD SVG 1.1//EN" "http://www.w3.org/Graphics/SVG/1.1/DTD/svg11.dtd">
<svg version="1.1" id="Layer_1" xmlns="http://www.w3.org/2000/svg" xmlns:xlink="http://www.w3.org/1999/xlink" x="0px" y="0px"
	 width="408px" height="160px" viewBox="17 21 408 160" enable-background="new 17 21 408 160" xml:space="preserve">
<g>
	<g>
		<g>
			<g>
				<g>
					<path fill="#8CC63F" d="M155.759,143.588H22.918v5.285c28.842,0,119.403,0,131.786,0c14.759,0,15.535,22.549,0,22.549H22.918
						v5.289h132.841c4.78,0,8.984-1.909,11.841-5.366c2.421-2.935,3.754-6.833,3.754-10.98
						C171.352,152.231,165.887,143.588,155.759,143.588z"/>
					<path fill="#E6E6E6" d="M154.971,148.873c-12.095,0-100.536,0-128.705,0l2.467,11.275l-2.467,11.273h128.705
						C170.142,171.422,169.383,148.873,154.971,148.873z"/>
				</g>
				<path fill="#8CC63F" d="M27.061,171.97c-0.56-0.183-1.118-0.365-1.678-0.546c2.382-7.328,2.382-15.221,0-22.551
					c0.561-0.182,1.119-0.361,1.678-0.543C29.555,156.011,29.555,164.285,27.061,171.97z"/>
			</g>
			<g>
				<g>
					<path fill="#29ABE2" d="M38.51,106.32h132.843v5.285c-28.843,0-119.405,0-131.787,0c-14.758,0-15.535,22.551,0,22.551h131.787
						v5.284H38.51c-4.778,0-8.982-1.905-11.838-5.362c-2.42-2.935-3.754-6.834-3.754-10.981
						C22.918,114.963,28.384,106.32,38.51,106.32z"/>
					<path fill="#E6E6E6" d="M39.3,111.604c12.095,0,100.537,0,128.706,0l-2.468,11.274l2.468,11.276H39.3
						C24.128,134.156,24.887,111.604,39.3,111.604z"/>
				</g>
				<path fill="#29ABE2" d="M167.209,134.7c0.561-0.182,1.118-0.362,1.678-0.544c-2.382-7.328-2.382-15.222,0-22.551
					c-0.56-0.182-1.117-0.363-1.678-0.544C164.712,118.742,164.712,127.019,167.209,134.7z"/>
			</g>
		</g>
		<g>
			<path fill="#8CC63F" d="M72.436,62.898c-0.002,0-0.006-0.001-0.008-0.001C72.432,62.897,72.434,62.897,72.436,62.898
				c-1.479-1.395-3.185-2.68-5.117-3.857l-13.766-8.188c-1.639-0.989-2.85-1.971-3.634-2.941c-0.785-0.973-1.177-1.953-1.177-2.942
				c0-1.023,0.503-1.748,1.509-2.175c1.006-0.426,2.84-0.641,5.501-0.641H74.94V25.371H58.208c-6.584,0-11.343,0.366-14.274,1.1
				c-2.936,0.734-5.407,1.988-7.419,3.761c-2.149,1.842-3.771,4.067-4.861,6.677c-1.092,2.61-1.637,5.52-1.637,8.725
				c0,3.31,0.954,6.524,2.863,9.646c0.23,0.375,0.472,0.742,0.721,1.102c0.006,0,0.013,0.002,0.019,0.002
				c-0.007,0-0.014-0.002-0.021-0.002c1.816,2.623,4.137,4.809,6.956,6.549l14.07,8.494c1.706,1.058,2.969,2.09,3.787,3.096
				c0.819,1.006,1.229,2.021,1.229,3.044c0,1.16-0.401,2.047-1.202,2.661c-0.803,0.613-1.938,0.921-3.403,0.921H29.81v17.5h20.108
				h1.126c5.938,0,10.269-0.333,12.997-0.998c2.729-0.665,5.187-1.765,7.368-3.3c2.49-1.773,4.435-4.076,5.833-6.908
				c1.398-2.831,2.098-5.9,2.098-9.21c0-3.854-1.021-7.42-3.068-10.694C75.234,65.875,73.954,64.33,72.436,62.898z"/>
			<path fill="#8CC63F" d="M101.494,34.069H85.224v30.489v12.596c0,7.403,1.866,12.835,5.603,16.297
				c3.735,3.463,9.561,5.194,17.475,5.194h6.038v-15.3h-7.42c-2.013,0-3.42-0.375-4.221-1.125c-0.802-0.75-1.203-2.047-1.203-3.889
				V66.334v-4.377h12.844V46.76h-12.845V34.069z"/>
			<path fill="#8CC63F" d="M152.33,46.76v22.711v6.199c0,2.423-0.699,4.394-2.098,5.91c-1.399,1.519-3.207,2.277-5.424,2.277
				c-2.22,0-4.035-0.759-5.45-2.277c-1.416-1.518-2.124-3.487-2.124-5.91v-6.741l0,0h0.001V46.76h-16.221v21.216v5.085
				c0,3.787,0.35,6.977,1.049,9.568c0.698,2.594,1.814,4.964,3.352,7.113c2.319,3.172,5.15,5.604,8.494,7.293
				c3.343,1.688,6.976,2.532,10.899,2.532c7.162,0,12.92-2.396,17.27-7.188s6.523-11.232,6.523-19.317v-3.386
				c-0.009,0-0.017-0.002-0.025-0.002c0.008,0,0.017,0,0.025,0V46.758H152.33V46.76z"/>
			<path fill="#8CC63F" d="M211.278,68.229L211.278,68.229l0.001,3.296h-0.001c0,3.719-0.828,6.566-2.482,8.545
				c-1.652,1.979-4.051,2.969-7.188,2.969c-2.898,0-5.211-0.922-6.936-2.764c-1.723-1.842-2.584-4.349-2.584-7.521
				c0-1.285,0.155-2.457,0.449-3.523c-0.005,0-0.011,0-0.017,0c0.006,0,0.011,0,0.017,0c0.433-1.564,1.173-2.902,2.238-3.998
				c1.791-1.842,4.238-2.763,7.342-2.763c0.818,0,1.766,0.102,2.84,0.307c1.076,0.205,2.295,0.529,3.66,0.974V46.761
				c-1.332-0.272-2.594-0.478-3.787-0.614c-1.193-0.136-2.303-0.205-3.326-0.205c-7.572,0-13.814,2.525-18.728,7.573
				c-4.24,4.358-6.646,9.733-7.227,16.125c0,0,0,0-0.002,0c-0.092,1.014-0.143,2.05-0.143,3.114c0,7.813,2.457,14.234,7.369,19.266
				c4.912,5.032,11.152,7.547,18.728,7.547c5.221,0,9.943-1.338,14.175-4.017c4.229-2.679,7.401-6.319,9.519-10.925
				c0.818-1.809,1.406-3.778,1.766-5.91c0.357-2.131,0.537-5.553,0.537-10.26v-1.578v-0.002V25.371h-16.221V68.229z"/>
			<path fill="#8CC63F" d="M267.206,46.76v14.71v14.764c0,2.388-0.699,4.341-2.098,5.859c-1.398,1.518-3.207,2.276-5.424,2.276
				c-2.221,0-4.035-0.759-5.449-2.276c-1.416-1.52-2.123-3.472-2.123-5.859V63.891V46.76h-16.221v19.227c0.001,0,0.002,0,0.003,0
				c-0.001,0-0.001,0-0.002,0v7.637c0,6.482,1.232,11.711,3.709,15.685c2.473,3.974,6.438,7.121,11.896,9.44v22.209h16.271V98.748
				c5.426-2.217,9.396-5.338,11.924-9.363c2.521-4.025,3.785-9.278,3.785-15.76V58.314V46.76H267.206z"/>
		</g>
		<g display="none">
			<g display="inline">
				<path fill="#29ABE2" d="M23.911,32.781c0.396-0.312,9.735-7.646,14.963-10.638c5.229-2.991,16.282-7.325,16.75-7.508
					l0.886-0.347l3.182,5.183L72.655,3.574H28.515L4.085,39.345l21.75-1.257l-2.669-4.719L23.911,32.781z"/>
				<path fill="#FFFFFF" d="M24.594,33.646c0,0,9.608-7.561,14.827-10.546c5.216-2.985,16.604-7.438,16.604-7.438l1.73,3.026
					l0.563-1.229l-1.813-3.17l-0.885,0.348c-0.468,0.183-11.521,4.517-16.75,7.508c-5.228,2.992-14.566,10.326-14.963,10.638
					l-0.747,0.587l1.813,3.168l1.35,0.139L24.594,33.646z"/>
				<path fill="#29ABE2" d="M39.421,23.101c-5.219,2.985-14.828,10.546-14.828,10.546l1.732,3.027l3.807,6.654l31.434-17.985
					l-3.809-6.654l-1.73-3.026C56.025,15.662,44.637,20.115,39.421,23.101z"/>
			</g>
			<polygon display="inline" fill="#29ABE2" points="18.283,27.516 17.139,46.813 21.025,46.902 19.29,24.969 			"/>
		</g>
		<g>
			<path fill="#29ABE2" d="M220.977,145.28c-0.009-0.001-0.018-0.003-0.024-0.004C220.96,145.277,220.968,145.278,220.977,145.28
				c-2.039-3.138-4.947-5.866-8.74-8.176l-13.766-8.187c-1.639-0.989-2.85-1.971-3.634-2.942s-1.178-1.952-1.178-2.942
				c0-1.022,0.503-1.748,1.51-2.175c1.006-0.426,2.84-0.64,5.501-0.64h19.188v-16.784h-16.732c-6.584,0-11.343,0.367-14.274,1.101
				c-2.937,0.733-5.407,1.987-7.42,3.76c-2.148,1.843-3.771,4.068-4.86,6.678c-1.093,2.609-1.638,5.52-1.638,8.725
				c0,3.309,0.953,6.524,2.863,9.646c1.483,2.423,3.361,4.498,5.626,6.232c0.653,0.5,1.333,0.976,2.052,1.418l14.069,8.493
				c1.705,1.058,2.97,2.091,3.787,3.097c0.818,1.006,1.229,2.021,1.229,3.043c0,1.16-0.401,2.047-1.202,2.662
				c-0.802,0.613-1.938,0.92-3.403,0.92h-25.227v17.5h20.108h1.125c5.938,0,10.27-0.332,12.997-0.998
				c2.729-0.664,5.188-1.765,7.369-3.299c2.489-1.773,4.436-4.076,5.833-6.908c1.398-2.832,2.099-5.901,2.099-9.211
				c0-3.854-1.022-7.42-3.069-10.694C221.123,145.49,221.045,145.388,220.977,145.28z"/>
			<path fill="#29ABE2" d="M323.063,150.562c-0.081-2.487-0.237-4.447-0.473-5.856c-0.356-2.168-0.944-4.138-1.765-5.912
				c-2.115-4.639-5.288-8.297-9.518-10.976c-4.229-2.678-8.954-4.017-14.176-4.017c-7.571,0-13.813,2.524-18.728,7.572
				c-4.73,4.863-7.178,10.994-7.354,18.389c0.005,0,0.009,0,0.013,0c-0.004,0-0.008,0-0.012,0c-0.005,0.281-0.016,0.563-0.016,0.851
				c0,7.778,2.457,14.192,7.369,19.24c4.912,5.049,11.154,7.573,18.728,7.573c1.023,0,2.134-0.069,3.326-0.205
				c1.193-0.137,2.456-0.342,3.787-0.614v-16.987c-1.604,0.512-2.898,0.869-3.89,1.074S298.496,161,297.746,161
				c-3.104,0-5.552-0.938-7.343-2.813c-1.791-1.875-2.688-4.399-2.688-7.573c0-0.052,0.006-0.101,0.008-0.152
				c-0.004,0-0.007,0-0.01,0c0.003,0,0.006,0,0.009,0c0.026-2.998,0.876-5.433,2.553-7.293c1.705-1.894,3.923-2.84,6.65-2.84
				c3.311,0,5.801,0.974,7.473,2.918c1.5,1.744,2.319,4.252,2.475,7.508h0.001c0.019,0.373,0.032,0.746,0.032,1.138v24.817h16.221
				v-21.696C323.129,153.371,323.106,151.895,323.063,150.562L323.063,150.562z"/>
			<path fill="#29ABE2" d="M408.122,146.725c1.604-0.512,2.978-1.296,4.119-2.354c1.042-0.965,1.837-2.123,2.411-3.455
				c0.001,0,0.001,0,0.001,0c0.056-0.129,0.121-0.25,0.172-0.383l6.09-15.709h-17.191l-3.377,8.699
				c-1.16,3.07-2.297,5.168-3.403,6.294c-1.108,1.125-2.481,1.688-4.119,1.688h-3.019v-38.07h-16.272v43.743h-0.001v29.53h16.271
				V156.6h5.833c2.66,0,4.621,0.666,5.886,1.996c1.262,1.331,1.894,3.429,1.894,6.294v11.819h16.222v-13.815
				c0-4.741-0.903-8.374-2.712-10.899C415.115,149.471,412.182,147.715,408.122,146.725z"/>
			<path fill="#29ABE2" d="M248.412,112.133h-16.271v34.453l0,0h-0.001v8.633c0,7.402,1.866,12.835,5.604,16.297
				c3.735,3.463,9.562,5.193,17.475,5.193h6.037V161.41h-7.419c-2.014,0-3.421-0.375-4.222-1.125
				c-0.802-0.75-1.203-2.048-1.203-3.89v-8.222v-8.152h19.626v-15.198h-19.626V112.133L248.412,112.133z"/>
			<path fill="#29ABE2" d="M338.226,131.937c-5.439,4.668-8.196,10.81-8.282,18.417c-0.001,0-0.001,0-0.002,0
				c0,0.122-0.007,0.24-0.007,0.361c0,7.813,2.764,14.098,8.29,18.856c5.524,4.759,12.895,7.138,22.104,7.138h6.089v-15.812h-7.11
				c-3.892,0-6.979-0.912-9.264-2.737c-2.286-1.824-3.429-4.272-3.429-7.343c0-0.444,0.031-0.874,0.079-1.294
				c0.001,0,0.001,0,0.002,0c0.283-2.475,1.395-4.51,3.349-6.1c2.284-1.858,5.372-2.788,9.263-2.788h7.111v-15.813h-6.089
				C351.119,124.823,343.751,127.195,338.226,131.937z"/>
		</g>
	</g>
</g>
</svg>
